<?xml version="1.0" encoding="utf-8"?>
<!-- Generator: Adobe Illustrator 23.0.5, SVG Export Plug-In . SVG Version: 6.00 Build 0)  -->
<svg version="1.1" id="Layer_1" xmlns="http://www.w3.org/2000/svg" xmlns:xlink="http://www.w3.org/1999/xlink" x="0px" y="0px"
	 viewBox="0 0 1920 1080" style="enable-background:new 0 0 1920 1080;" xml:space="preserve">
<style type="text/css">
	.st0{fill:url(#SVGID_1_);}
	.st1{opacity:0.2;fill:#FFFFFF;}
	.st2{opacity:0.1;fill:#FFFFFF;}
	.st3{opacity:0.8;fill:url(#SVGID_2_);}
	.st4{opacity:0.65;}
	.st5{fill:url(#SVGID_3_);}
	.st6{fill:url(#SVGID_4_);}
	.st7{fill:url(#SVGID_5_);}
	.st8{fill:url(#SVGID_6_);}
	.st9{fill:url(#SVGID_7_);}
	.st10{clip-path:url(#SVGID_8_);}
	.st11{fill:url(#SVGID_9_);}
	.st12{fill:url(#SVGID_10_);}
	.st13{fill:url(#SVGID_11_);}
	.st14{fill:url(#SVGID_12_);}
	.st15{fill:url(#SVGID_13_);}
	.st16{fill:url(#SVGID_14_);}
	.st17{fill:#FFFFFF;}
</style>
<g>
	<linearGradient id="SVGID_1_" gradientUnits="userSpaceOnUse" x1="2.702938e-03" y1="540" x2="1919.9952" y2="540">
		<stop  offset="0.0307" style="stop-color:#0AC1C1"/>
		<stop  offset="0.514" style="stop-color:#0AC1C1"/>
		<stop  offset="1" style="stop-color:#0ABBBD"/>
		<stop  offset="1" style="stop-color:#0E7486"/>
		<stop  offset="1" style="stop-color:#0F5C74"/>
		<stop  offset="1" style="stop-color:#0AC1C1"/>
	</linearGradient>
	<rect x="0" class="st0" width="1919.99" height="1080"/>
	<g>
		<path class="st1" d="M0,614.73c22.07-24.59,58.2-36.14,92.07-35.87c41.09,0.33,80.59,14.53,120.27,25.19
			c39.68,10.66,82.52,17.76,121.3,4.17c39.1-13.7,70.33-47.23,111.19-54.08c77.81-13.03,143.14,75.06,221.82,69.34
			c33.07-2.41,62.31-21.26,93.37-32.84c76.8-28.63,169.27-9.32,228.2,47.66c47.13,45.58,134.06-1.23,196.55-21.05
			c62.49-19.82,127.03-42.6,191.99-33.74c66.78,9.1,127.26,51.08,194.66,51.42c43.57,0.22,85.14-17.11,128.07-24.57
			c76.74-13.34,158.1,7.89,220.5,54.17l0,415.45H0L0,614.73z"/>
		<path class="st2" d="M0,504.19c62.89-30.98,126.67-25.59,190.04,4.41c38.91,18.42,74.9,48.2,117.92,49.54
			c48.2,1.5,88.82-32.84,131.05-56.12c89.13-49.14,203.04-50.09,292.98-2.46c43.8,23.2,81.27,56.53,122.46,84.09
			c35.03,23.44,72.95,42.85,105.08,70.12c41.07,34.86,70.79,80.91,99.9,126.25c31.38,48.89,62.76,97.78,94.15,146.66
			c17.4,37.63,34.81,115.68,52.21,153.32H0L0,504.19z"/>
	</g>
	<g>
		<linearGradient id="SVGID_2_" gradientUnits="userSpaceOnUse" x1="959.999" y1="1080" x2="959.999" y2="693.2109">
			<stop  offset="0" style="stop-color:#0B4E5E"/>
			<stop  offset="0.9986" style="stop-color:#0F5C74"/>
		</linearGradient>
		<polygon class="st3" points="0,904.96 163.48,742.16 335.06,927.06 558.41,703.7 812.82,920.66 1175.36,693.21 1465.32,912.9 
			1762.06,771.71 1920,903.06 1920,1080 0,1080 		"/>
		<g class="st4">
			<linearGradient id="SVGID_3_" gradientUnits="userSpaceOnUse" x1="1874.3721" y1="902.7473" x2="1874.3721" y2="816.4175">
				<stop  offset="0" style="stop-color:#0B4E5E"/>
				<stop  offset="0.9986" style="stop-color:#0F5C74"/>
			</linearGradient>
			<polygon class="st5" points="1919.62,902.75 1919.5,851.03 1868.58,816.42 1829.12,827.48 			"/>
			<linearGradient id="SVGID_4_" gradientUnits="userSpaceOnUse" x1="1514.8473" y1="912.8998" x2="1514.8473" y2="765.8373">
				<stop  offset="0" style="stop-color:#0B4E5E"/>
				<stop  offset="0.9986" style="stop-color:#0F5C74"/>
			</linearGradient>
			<polygon class="st6" points="1465.32,912.9 1708.77,797.07 1654.88,765.84 1526.02,848.28 1390.9,772.25 1320.93,803.5 			"/>
			<linearGradient id="SVGID_5_" gradientUnits="userSpaceOnUse" x1="852.8512" y1="920.6591" x2="852.8512" y2="745.7994">
				<stop  offset="0" style="stop-color:#0B4E5E"/>
				<stop  offset="0.9986" style="stop-color:#0F5C74"/>
			</linearGradient>
			<polygon class="st7" points="812.82,920.66 1051.97,770.62 1007.45,745.8 898.99,816.42 825.39,822.8 704.56,745.8 
				653.73,784.99 			"/>
			<linearGradient id="SVGID_6_" gradientUnits="userSpaceOnUse" x1="49.9694" y1="1080" x2="49.9694" y2="775.1646">
				<stop  offset="0" style="stop-color:#0B4E5E"/>
				<stop  offset="0.9986" style="stop-color:#0F5C74"/>
			</linearGradient>
			<polygon class="st8" points="99.94,805.44 60.08,775.16 0,842.62 0,1080 0,904.96 			"/>
			<linearGradient id="SVGID_7_" gradientUnits="userSpaceOnUse" x1="342.4714" y1="927.0558" x2="342.4714" y2="772.2454">
				<stop  offset="0" style="stop-color:#0B4E5E"/>
				<stop  offset="0.9986" style="stop-color:#0F5C74"/>
			</linearGradient>
			<polygon class="st9" points="335.06,927.06 465.49,796.62 419.17,775.16 330,838.37 254.55,772.25 219.45,802.48 			"/>
		</g>
		<g>
			<defs>
				<rect id="SVGID_23_" y="641.84" width="1920" height="438.16"/>
			</defs>
			<clipPath id="SVGID_8_">
				<use xlink:href="#SVGID_23_"  style="overflow:visible;"/>
			</clipPath>
			<g class="st10">
				<linearGradient id="SVGID_9_" gradientUnits="userSpaceOnUse" x1="1510.3884" y1="1080" x2="1510.3884" y2="745.7994">
					<stop  offset="0" style="stop-color:#0B4365"/>
					<stop  offset="1" style="stop-color:#02969C"/>
				</linearGradient>
				<polygon class="st11" points="1039.17,1080 1540.99,745.8 1981.61,1080 				"/>
				<linearGradient id="SVGID_10_" gradientUnits="userSpaceOnUse" x1="850.5295" y1="1080" x2="850.5295" y2="675.4486">
					<stop  offset="0" style="stop-color:#0B4365"/>
					<stop  offset="1" style="stop-color:#02969C"/>
				</linearGradient>
				<polygon class="st12" points="373.04,1080 849.93,675.45 1328.02,1080 				"/>
				<linearGradient id="SVGID_11_" gradientUnits="userSpaceOnUse" x1="304.5038" y1="1080" x2="304.5038" y2="761.3182">
					<stop  offset="0" style="stop-color:#0B4365"/>
					<stop  offset="1" style="stop-color:#02969C"/>
				</linearGradient>
				<polygon class="st13" points="-123.05,1080 327.66,761.32 732.05,1080 				"/>
				<linearGradient id="SVGID_12_" gradientUnits="userSpaceOnUse" x1="446.4276" y1="1006.2224" x2="536.1151" y2="914.2407">
					<stop  offset="0.3667" style="stop-color:#02A69C"/>
					<stop  offset="0.9665" style="stop-color:#0F5C74"/>
				</linearGradient>
				<polygon class="st14" points="327.66,761.32 294.82,840.57 397.7,871.28 304.5,877.42 500.58,975.69 397.7,966.48 620.35,1080 
					732.05,1080 				"/>
				<linearGradient id="SVGID_13_" gradientUnits="userSpaceOnUse" x1="1678.559" y1="1012.8229" x2="1769.4894" y2="903.0111">
					<stop  offset="0.424" style="stop-color:#02A69C"/>
					<stop  offset="0.5524" style="stop-color:#049B96"/>
					<stop  offset="0.7755" style="stop-color:#097F87"/>
					<stop  offset="1" style="stop-color:#0F5C74"/>
				</linearGradient>
				<polygon class="st15" points="1540.99,745.8 1502.77,795.22 1614.02,846.56 1518.17,832.87 1699.6,947.54 1586.63,920.66 
					1853.63,1080 1981.61,1080 				"/>
				<linearGradient id="SVGID_14_" gradientUnits="userSpaceOnUse" x1="1018.9128" y1="939.8198" x2="1094.5189" y2="872.8115">
					<stop  offset="0.0706" style="stop-color:#02A69C"/>
					<stop  offset="0.4249" style="stop-color:#07888C"/>
					<stop  offset="1" style="stop-color:#0F5C74"/>
				</linearGradient>
				<polygon class="st16" points="849.93,675.45 812.82,732.28 960,820.9 839.76,794.31 1051.17,943.7 894.19,898.12 1128.4,1080 
					1328.02,1080 				"/>
			</g>
		</g>
	</g>
	<g>
		<path class="st17" d="M79.2,700.19c-3.86,0-3.87,6,0,6C83.06,706.19,83.06,700.19,79.2,700.19z"/>
		<path class="st17" d="M406.26,698.98c-3.86,0-3.87,6,0,6C410.12,704.98,410.13,698.98,406.26,698.98z"/>
		<path class="st17" d="M264.51,437.28c-3.86,0-3.87,6,0,6C268.37,443.28,268.38,437.28,264.51,437.28z"/>
		<path class="st17" d="M419.34,241.01c-3.86,0-3.87,6,0,6C423.21,247.01,423.21,241.01,419.34,241.01z"/>
		<path class="st17" d="M87.87,173.41c-3.86,0-3.87,6,0,6C91.73,179.41,91.73,173.41,87.87,173.41z"/>
		<path class="st17" d="M526.2,42.56c-3.86,0-3.87,6,0,6C530.06,48.56,530.07,42.56,526.2,42.56z"/>
		<path class="st17" d="M687.58,232.29c-3.86,0-3.87,6,0,6C691.44,238.29,691.45,232.29,687.58,232.29z"/>
		<path class="st17" d="M1049.59,75.27c-3.86,0-3.87,6,0,6C1053.45,81.27,1053.46,75.27,1049.59,75.27z"/>
		<path class="st17" d="M1254.59,241.01c-3.86,0-3.87,6,0,6C1258.45,247.01,1258.45,241.01,1254.59,241.01z"/>
		<path class="st17" d="M1538.09,29.48c-3.86,0-3.87,6,0,6C1541.95,35.48,1541.96,29.48,1538.09,29.48z"/>
		<path class="st17" d="M1566.44,282.45c-3.86,0-3.87,6,0,6C1570.3,288.45,1570.31,282.45,1566.44,282.45z"/>
		<path class="st17" d="M1825.95,182.13c-3.86,0-3.87,6,0,6C1829.81,188.13,1829.82,182.13,1825.95,182.13z"/>
		<path class="st17" d="M1795.42,394.49c-3.86,0-3.87,6,0,6C1799.28,400.49,1799.29,394.49,1795.42,394.49z"/>
		<path class="st17" d="M1517.75,520.97c-3.86,0-3.87,6,0,6C1521.61,526.97,1521.61,520.97,1517.75,520.97z"/>
		<path class="st17" d="M1441.01,431.03c-8.04,0-8.05,12.5,0,12.5C1449.05,443.53,1449.07,431.03,1441.01,431.03z"/>
		<path class="st17" d="M1792.52,686.96c-8.04,0-8.05,12.5,0,12.5C1800.56,699.46,1800.58,686.96,1792.52,686.96z"/>
		<path class="st17" d="M1855.02,144.98c-8.04,0-8.05,12.5,0,12.5C1863.06,157.48,1863.07,144.98,1855.02,144.98z"/>
		<path class="st17" d="M1535.19,188.13c-8.04,0-8.05,12.5,0,12.5C1543.23,200.63,1543.25,188.13,1535.19,188.13z"/>
		<path class="st17" d="M1145.76,347.42c-8.04,0-8.06,12.5,0,12.5C1153.8,359.91,1153.82,347.42,1145.76,347.42z"/>
		<path class="st17" d="M767.55,178.88c-8.04,0-8.05,12.5,0,12.5C775.59,191.38,775.61,178.88,767.55,178.88z"/>
		<path class="st17" d="M357.54,641.84c-8.04,0-8.05,12.5,0,12.5C365.58,654.34,365.59,641.84,357.54,641.84z"/>
		<path class="st17" d="M90.76,665.2c-8.04,0-8.05,12.5,0,12.5C98.8,677.7,98.82,665.2,90.76,665.2z"/>
		<path class="st17" d="M49.97,98.41c-8.04,0-8.05,12.5,0,12.5C58.01,110.91,58.02,98.41,49.97,98.41z"/>
		<path class="st17" d="M238.13,194.38c-8.04,0-8.05,12.5,0,12.5C246.17,206.88,246.19,194.38,238.13,194.38z"/>
		<path class="st17" d="M483.91,110.91c-8.04,0-8.05,12.5,0,12.5C491.96,123.41,491.97,110.91,483.91,110.91z"/>
		<path class="st17" d="M1852.12,707.7c-3.86,0-3.87,6,0,6C1855.98,713.7,1855.99,707.7,1852.12,707.7z"/>
		<path class="st17" d="M1466.12,720.79c-3.86,0-3.87,6,0,6C1469.98,726.79,1469.99,720.79,1466.12,720.79z"/>
		<path class="st17" d="M1176.08,541.96c-3.86,0-3.87,6,0,6C1179.94,547.96,1179.94,541.96,1176.08,541.96z"/>
		<path class="st17" d="M923.11,668.45c-3.86,0-3.87,6,0,6C926.97,674.45,926.97,668.45,923.11,668.45z"/>
		<path class="st17" d="M630.88,515.79c-3.86,0-3.87,6,0,6C634.74,521.79,634.75,515.79,630.88,515.79z"/>
	</g>
</g>
</svg>
